<svg xmlns="http://www.w3.org/2000/svg" viewBox="0 0 400 300" role="img" aria-label="Illustration: stethoscope and heart"><defs><linearGradient id="g" x1="0" y1="0" x2="1" y2="1"><stop offset="0" stop-color="#e9f2f9"/><stop offset="1" stop-color="#d4e6f4"/></linearGradient></defs><rect width="400" height="300" rx="28" fill="url(#g)"/><circle cx="310" cy="70" r="46" fill="#fff4e0"/><path d="M310 52c-8-12-28-8-28 8 0 14 28 30 28 30s28-16 28-30c0-16-20-20-28-8z" fill="#f7a21b"/><path d="M40 190h70l12-24 16 52 18-72 16 64 10-20h70" fill="none" stroke="#13608f" stroke-width="6" stroke-linecap="round" stroke-linejoin="round"/><path d="M120 60v60a50 50 0 0 0 100 0V60" fill="none" stroke="#0a3553" stroke-width="10" stroke-linecap="round"/><path d="M170 170v30a45 45 0 0 0 90 0v-28" fill="none" stroke="#0a3553" stroke-width="10" stroke-linecap="round"/><circle cx="260" cy="160" r="20" fill="#fff" stroke="#0a3553" stroke-width="10"/><circle cx="120" cy="56" r="9" fill="#d32f2f"/><circle cx="220" cy="56" r="9" fill="#d32f2f"/><rect x="286" y="190" width="70" height="70" rx="16" fill="#0f4c75"/><path d="M314 206h14v16h16v14h-16v16h-14v-16h-16v-14h16z" fill="#fff"/></svg>
